<svg width="31" height="31" viewBox="0 0 31 31" fill="none" xmlns="http://www.w3.org/2000/svg">
<g clip-path="url(#clip0_149:89)">
<path d="M15.5 0L17.9548 6.88657C18.0197 7.0695 18.1223 7.23679 18.2558 7.37766C18.3893 7.51854 18.5509 7.62987 18.7301 7.70447C18.9093 7.77908 19.1021 7.81531 19.2962 7.81083C19.4902 7.80635 19.6812 7.76125 19.8567 7.67845L26.4613 4.54011L23.3215 11.1433C23.2378 11.319 23.1919 11.5104 23.1868 11.705C23.1818 11.8996 23.2177 12.0931 23.2922 12.273C23.3667 12.4528 23.4782 12.615 23.6195 12.749C23.7607 12.883 23.9285 12.9858 24.112 13.0507L31.0014 15.5L24.112 17.9493C23.9285 18.0142 23.7607 18.117 23.6195 18.251C23.4782 18.385 23.3667 18.5472 23.2922 18.727C23.2177 18.9069 23.1818 19.1004 23.1868 19.295C23.1919 19.4896 23.2378 19.681 23.3215 19.8567L26.4613 26.4599L19.8567 23.3215C19.6812 23.2387 19.4902 23.1937 19.2962 23.1892C19.1021 23.1847 18.9093 23.2209 18.7301 23.2955C18.5509 23.3701 18.3893 23.4815 18.2558 23.6223C18.1223 23.7632 18.0197 23.9305 17.9548 24.1134L15.5042 31.0028L13.0507 24.1134C12.9858 23.9303 12.8833 23.7629 12.7496 23.6219C12.616 23.4809 12.4543 23.3695 12.2749 23.2948C12.0956 23.2202 11.9026 23.184 11.7084 23.1886C11.5141 23.1932 11.3231 23.2385 11.1474 23.3215L4.54427 26.4599L7.67428 19.8567C7.75809 19.6811 7.80405 19.4898 7.8092 19.2952C7.81435 19.1007 7.77857 18.9072 7.70417 18.7274C7.62978 18.5476 7.51843 18.3854 7.37734 18.2513C7.23626 18.1173 7.06858 18.0144 6.88518 17.9493L0 15.5L6.88935 13.0507C7.07238 12.9852 7.23963 12.882 7.38026 12.7477C7.52089 12.6135 7.63178 12.4512 7.70577 12.2715C7.77975 12.0917 7.81517 11.8984 7.80975 11.704C7.80433 11.5097 7.75818 11.3187 7.67428 11.1433L4.53594 4.54011L11.1474 7.67845C11.3231 7.76149 11.5141 7.80677 11.7084 7.81137C11.9026 7.81598 12.0956 7.7798 12.2749 7.70517C12.4543 7.63055 12.616 7.51914 12.7496 7.37814C12.8833 7.23714 12.9858 7.06968 13.0507 6.88657L15.5 0Z" fill="white"/>
</g>
<defs>
<clipPath id="clip0_149:89">
<rect width="31" height="31" fill="white"/>
</clipPath>
</defs>
</svg>
